<?xml version="1.0" standalone="no"?>
<!DOCTYPE svg PUBLIC "-//W3C//DTD SVG 20010904//EN"
 "http://www.w3.org/TR/2001/REC-SVG-20010904/DTD/svg10.dtd">
<svg version="1.0" xmlns="http://www.w3.org/2000/svg"
 width="260.000000pt" height="260.000000pt" viewBox="0 0 260.000000 260.000000"
 preserveAspectRatio="xMidYMid meet">
<metadata>
Created by potrace 1.11, written by Peter Selinger 2001-2013
</metadata>
<g transform="translate(0.000000,260.000000) scale(0.100000,-0.100000)"
fill="#000000" stroke="none">
<path d="M1254 2217 c-23 -14 -93 -66 -112 -85 -8 -7 -30 -25 -50 -40 -21 -15
-64 -49 -97 -75 -33 -27 -75 -60 -94 -75 -62 -49 -96 -77 -110 -90 -8 -8 -37
-31 -65 -52 -28 -21 -80 -62 -116 -90 -36 -28 -86 -67 -112 -86 -27 -20 -48
-40 -48 -45 0 -5 -5 -9 -11 -9 -5 0 -24 -13 -42 -30 -18 -16 -35 -30 -39 -30
-4 0 -15 -14 -23 -31 -14 -26 -14 -35 -3 -60 7 -16 21 -32 30 -35 18 -5 75 30
133 82 17 14 55 45 85 67 30 22 57 44 60 47 5 8 86 71 162 126 26 19 48 38 50
42 2 4 30 27 63 52 33 24 69 52 80 62 32 27 137 111 175 139 19 15 49 39 65
53 17 14 36 26 43 26 13 0 69 -35 82 -50 3 -3 23 -19 45 -35 22 -16 56 -43 76
-60 20 -16 77 -61 129 -100 51 -38 100 -77 109 -87 15 -15 90 -74 190 -148 26
-19 74 -57 106 -83 134 -108 162 -127 184 -127 23 0 51 35 51 64 0 21 -60 83
-141 143 -29 23 -85 66 -124 97 -38 31 -95 74 -127 96 -31 22 -58 43 -60 47
-1 5 -38 35 -82 68 -125 95 -140 107 -207 159 -35 27 -65 53 -67 58 -2 4 -10
8 -18 8 -8 0 -14 4 -14 9 0 11 -111 91 -125 91 -5 -1 -19 -6 -31 -13z"/>
<path d="M592 1377 c-22 -23 -22 -26 -22 -450 0 -293 3 -434 11 -451 15 -33
33 -35 304 -36 167 -1 231 -4 237 -13 6 -9 8 -9 8 1 0 9 90 12 418 12 345 0
422 2 438 14 18 14 19 30 19 464 0 372 -2 452 -14 466 -20 24 -52 16 -72 -19
-16 -27 -18 -67 -18 -407 l-1 -378 -615 0 -615 0 0 390 c0 377 -1 391 -20 410
-25 25 -32 25 -58 -3z"/>
</g>
</svg>
